<svg height="512pt" viewBox="0 0 512.00003 512" width="512pt" xmlns="http://www.w3.org/2000/svg"><path d="m0 0h370.757812v441.378906h-370.757812zm0 0" fill="#cde2dd"/><path d="m70.621094 35.308594h370.757812v441.382812h-370.757812zm0 0" fill="#d2b894"/><path d="m141.242188 70.621094h370.757812v441.378906h-370.757812zm0 0" fill="#88d0ef"/><path d="m176.550781 123.585938h194.207031v273.65625h-194.207031zm0 0" fill="#2276bb"/><g fill="#fff"><path d="m406.070312 141.242188h79.445313v17.65625h-79.445313zm0 0"/><path d="m406.070312 185.378906h26.480469v17.65625h-26.480469zm0 0"/><path d="m459.035156 185.378906h26.480469v17.65625h-26.480469zm0 0"/><path d="m406.070312 229.515625h79.445313v17.65625h-79.445313zm0 0"/><path d="m406.070312 273.65625h17.652344v17.652344h-17.652344zm0 0"/><path d="m450.207031 273.65625h35.308594v17.652344h-35.308594zm0 0"/><path d="m406.070312 317.792969h79.445313v17.65625h-79.445313zm0 0"/></g><path d="m220.691406 432.550781h35.308594v35.3125h-35.308594zm0 0" fill="#d2d7d6"/><path d="m291.308594 432.550781h35.3125v35.3125h-35.3125zm0 0" fill="#d2d7d6"/><path d="m406.070312 361.929688h17.652344v17.65625h-17.652344zm0 0" fill="#fff"/><path d="m441.378906 361.929688h26.484375v17.65625h-26.484375zm0 0" fill="#fff"/><path d="m291.308594 293.90625v-2.597656c16.976562-17.378906 26.484375-40.710938 26.484375-65.003906v-23.269532c0-24.378906-19.761719-44.136718-44.136719-44.136718-24.378906 0-44.140625 19.757812-44.140625 44.136718v23.269532c.003906 24.292968 9.507813 47.625 26.484375 65.003906v2.597656c-26.179688 7.804688-44.128906 31.875-44.136719 59.195312v44.140626h123.585938v-44.140626c-.007813-27.316406-17.957031-51.390624-44.140625-59.195312zm0 0" fill="#ffbf41"/></svg>